# xmcd CD database file
#
# Track frame offsets:
#	150
#	14284
#	26241
#	42575
#	61150
#	72365
#	83570
#	95467
#	107871
#	123534
#	141426
#	154678
#	166968
#	184479
#	198644
#	212161
#	222014
#	234829
#	246514
#	257964
#	272479
#	288232
#
# Disc length: 4053 seconds
#
# Revision: 2
# Processed by: cddbd v1.5.2PL0 Copyright (c) Steve Scherf et al.
# Submitted via: jetAudio 7
#
DISCID=4d0fd316
DTITLE=Janita Claassen - (021) Grootste Treffers Ooit
DYEAR=1997
DGENRE=CD No 021
TTITLE0=Meisiekind
TTITLE1=Oorwinter
TTITLE2=Rolbos
TTITLE3=Hoor Jy Die Klokke
TTITLE4=Hardloop My Kind
TTITLE5=Reëndruppels
TTITLE6=Dans
TTITLE7=Ballonne
TTITLE8=Yo-Yo
TTITLE9=Pie Jesu
TTITLE10=Mooiste Stukkie Mens
TTITLE11=Sprokie Vir 'n Stadskund
TTITLE12=Maar As Ek Droom
TTITLE13=Walse Uit Wene
TTITLE14=Wense
TTITLE15=Lied Vir Ma
TTITLE16=Soekie (Slawekoor: Nabucoo - Verdi)
TTITLE17=Cielito Lindo
TTITLE18=Duiwe
TTITLE19=Silwer and Satyn
TTITLE20=Stemme
TTITLE21=Vang die lig ( Duet Met Manuel)
EXTD=
EXTT0=
EXTT1=
EXTT2=
EXTT3=
EXTT4=
EXTT5=
EXTT6=
EXTT7=
EXTT8=
EXTT9=
EXTT10=
EXTT11=
EXTT12=
EXTT13=
EXTT14=
EXTT15=
EXTT16=
EXTT17=
EXTT18=
EXTT19=
EXTT20=
EXTT21=
PLAYORDER=
